<svg xmlns="http://www.w3.org/2000/svg" width="180" height="180" viewBox="0 0 180 180">
  <g id="Group_1167" data-name="Group 1167" transform="translate(-338 -353)">
    <g id="Group_359" data-name="Group 359" transform="translate(0 8)">
      <circle id="Ellipse_46" data-name="Ellipse 46" cx="90" cy="90" r="90" transform="translate(338 345)" fill="#fff"/>
    </g>
    <g id="Layer_1" data-name="Layer 1" transform="translate(376 390)">
      <g id="Group_693" data-name="Group 693">
        <path id="Path_1989" data-name="Path 1989" d="M85.841,59.22A29.861,29.861,0,1,0,115.7,89.081,29.858,29.858,0,0,0,85.841,59.22Zm-14.9,20.486a5.146,5.146,0,1,1,5.146,5.146A5.149,5.149,0,0,1,70.936,79.706Zm14.9,26.852A13.334,13.334,0,0,1,72.666,95.232a1.721,1.721,0,0,1,1.686-1.989H97.33a1.724,1.724,0,0,1,1.686,1.989A13.322,13.322,0,0,1,85.841,106.558ZM95.6,84.852a5.146,5.146,0,1,1,5.146-5.146A5.149,5.149,0,0,1,95.6,84.852Z" transform="translate(-12.563 -13.359)" fill="#004e85"/>
        <path id="Path_1990" data-name="Path 1990" d="M44.328,32.329a12,12,0,1,0-12,12A12,12,0,0,0,44.328,32.329Z" transform="translate(-5.3 -5.3)" fill="#14a0de"/>
        <path id="Path_1991" data-name="Path 1991" d="M35.543,11.075a2.882,2.882,0,0,0,2.883-2.883V2.883a2.883,2.883,0,1,0-5.767,0V8.2a2.882,2.882,0,0,0,2.883,2.883Z" transform="translate(-8)" fill="#14a0de"/>
        <path id="Path_1992" data-name="Path 1992" d="M14.171,18.242a2.883,2.883,0,1,0,4.081-4.074L14.5,10.413a2.88,2.88,0,0,0-4.074,4.074l3.756,3.756Z" transform="translate(-2.497 -2.495)" fill="#14a0de"/>
        <path id="Path_1993" data-name="Path 1993" d="M11.075,35.543A2.882,2.882,0,0,0,8.192,32.66H2.883a2.883,2.883,0,1,0,0,5.767H8.2a2.882,2.882,0,0,0,2.883-2.883Z" transform="translate(0 -8)" fill="#14a0de"/>
        <path id="Path_1994" data-name="Path 1994" d="M14.169,51.523l-3.756,3.756a2.883,2.883,0,0,0,4.081,4.074L18.25,55.6a2.88,2.88,0,0,0-4.074-4.074Z" transform="translate(-2.495 -12.383)" fill="#14a0de"/>
        <path id="Path_1995" data-name="Path 1995" d="M32.66,61.013v5.316a2.883,2.883,0,1,0,5.767,0V61.013a2.883,2.883,0,1,0-5.767,0Z" transform="translate(-8 -14.187)" fill="#14a0de"/>
        <path id="Path_1996" data-name="Path 1996" d="M51.523,51.523a2.883,2.883,0,0,0,0,4.074l3.756,3.756a2.883,2.883,0,0,0,4.081-4.074L55.6,51.523a2.883,2.883,0,0,0-4.074,0Z" transform="translate(-12.381 -12.383)" fill="#14a0de"/>
        <path id="Path_1997" data-name="Path 1997" d="M58.14,35.543a2.882,2.882,0,0,0,2.883,2.883h5.316a2.883,2.883,0,1,0,0-5.767H61.023A2.882,2.882,0,0,0,58.14,35.543Z" transform="translate(-14.187 -8)" fill="#14a0de"/>
        <path id="Path_1998" data-name="Path 1998" d="M53.556,19.085a2.889,2.889,0,0,0,2.041-.843l3.756-3.756a2.88,2.88,0,0,0-4.074-4.074l-3.756,3.756a2.88,2.88,0,0,0,2.041,4.916Z" transform="translate(-12.381 -2.495)" fill="#14a0de"/>
      </g>
    </g>
  </g>
</svg>
