<svg xmlns="http://www.w3.org/2000/svg" width="180" height="180" viewBox="0 0 180 180">
  <g id="Group_361" data-name="Group 361" transform="translate(-842 -345)">
    <circle id="Ellipse_48" data-name="Ellipse 48" cx="90" cy="90" r="90" transform="translate(842 345)" fill="#fff"/>
    <g id="Layer_1" data-name="Layer 1" transform="translate(874.406 395.47)">
      <g id="Group_356" data-name="Group 356" transform="translate(0 0)">
        <path id="Path_946" data-name="Path 946" d="M38.17,19.085A19.085,19.085,0,1,0,19.085,38.17,19.086,19.086,0,0,0,38.17,19.085Zm-21.8,8.265a2.885,2.885,0,0,1-2.03-.835L9.453,21.627a2.871,2.871,0,1,1,4.06-4.06l2.858,2.858,7.811-7.811a2.871,2.871,0,0,1,4.06,4.06l-9.834,9.841a2.885,2.885,0,0,1-2.03.835Z" transform="translate(0 0)" fill="#004e85"/>
        <path id="Path_947" data-name="Path 947" d="M126.065,0A19.085,19.085,0,1,0,145.15,19.085,19.086,19.086,0,0,0,126.065,0Zm7.581,22.577a2.891,2.891,0,1,1-4.089,4.089l-3.484-3.492-3.484,3.492a2.9,2.9,0,0,1-2.045.85,2.894,2.894,0,0,1-2.045-4.939l3.484-3.492L118.5,15.6a2.891,2.891,0,1,1,4.089-4.089L126.072,15l3.484-3.484a2.891,2.891,0,0,1,4.089,4.089l-3.484,3.484Z" transform="translate(-29.963 0)" fill="#004e85"/>
        <path id="Path_948" data-name="Path 948" d="M90.133,63.254,89,53.881a11.471,11.471,0,0,0-8.754-9.791l-4.564,11.4L74.7,47.257h.655a.722.722,0,0,0,.72-.72V44.32a.722.722,0,0,0-.72-.72H71.746a.722.722,0,0,0-.72.72v2.217a.722.722,0,0,0,.72.72H72.4l-.986,8.236-4.557-11.4A11.5,11.5,0,0,0,58.1,53.881l-1.13,9.373a2.377,2.377,0,0,0,1.836,2.621c1.7.367,3.456.641,5.234.878L65.31,88.66a3.267,3.267,0,0,0,3.261,3.081h9.964A3.262,3.262,0,0,0,81.8,88.66l1.267-21.907c1.778-.238,3.535-.518,5.234-.878a2.377,2.377,0,0,0,1.836-2.621Z" transform="translate(-15.952 -12.211)" fill="#004e85"/>
        <circle id="Ellipse_52" data-name="Ellipse 52" cx="10.194" cy="10.194" r="10.194" transform="translate(47.407 8.891)" fill="#004e85"/>
        <path id="Path_949" data-name="Path 949" d="M126.7,62.108a2.611,2.611,0,0,0-4.039,0l-6.926,9.309a2.51,2.51,0,0,0,2.016,4.01h4.161V86.341a4.787,4.787,0,0,1-4.78,4.78h-12.4a2.765,2.765,0,1,0,0,5.529h12.4a10.322,10.322,0,0,0,10.309-10.309V75.427H131.6a2.51,2.51,0,0,0,2.016-4.01l-6.926-9.309Z" transform="translate(-28.557 -17.127)" fill="#14a0de"/>
        <path id="Path_950" data-name="Path 950" d="M42.784,91.121H30.38a4.787,4.787,0,0,1-4.78-4.78V75.427h4.161a2.51,2.51,0,0,0,2.016-4.01l-6.926-9.309a2.611,2.611,0,0,0-4.039,0l-6.926,9.309a2.51,2.51,0,0,0,2.016,4.01h4.161V86.341A10.322,10.322,0,0,0,30.373,96.65h12.4a2.765,2.765,0,1,0,0-5.529Z" transform="translate(-3.75 -17.127)" fill="#14a0de"/>
      </g>
    </g>
  </g>
</svg>
