<svg xmlns="http://www.w3.org/2000/svg" width="180" height="180" viewBox="0 0 180 180">
  <g id="Group_360" data-name="Group 360" transform="translate(-590 -345)">
    <circle id="Ellipse_47" data-name="Ellipse 47" cx="90" cy="90" r="90" transform="translate(590 345)" fill="#fff"/>
    <g id="Layer_1" data-name="Layer 1" transform="translate(628.941 375.515)">
      <g id="Group_355" data-name="Group 355" transform="translate(0 0.002)">
        <g id="Group_353" data-name="Group 353">
          <path id="Path_938" data-name="Path 938" d="M6.152,59.482A44.453,44.453,0,0,1,50.559,15.075H51.4l-3.662,3.662a3.076,3.076,0,0,0,4.351,4.351L61,14.174a3.082,3.082,0,0,0,0-4.351L52.1.9a3.076,3.076,0,1,0-4.351,4.351l3.662,3.662h-.841a50.568,50.568,0,0,0-29.775,91.44,3.077,3.077,0,1,0,3.628-4.971,44.593,44.593,0,0,1-18.261-35.9Z" transform="translate(0 -0.002)" fill="#004e85"/>
          <path id="Path_939" data-name="Path 939" d="M108.062,62.667A50.771,50.771,0,0,0,87.269,21.8a3.077,3.077,0,1,0-3.628,4.971,44.412,44.412,0,0,1-26.146,80.308h-.841l3.662-3.662a3.076,3.076,0,1,0-4.351-4.351l-8.914,8.914a3.082,3.082,0,0,0,0,4.351l8.914,8.914a3.076,3.076,0,0,0,4.351-4.351l-3.662-3.662h.841a50.629,50.629,0,0,0,50.568-50.568Z" transform="translate(-6.935 -3.188)" fill="#004e85"/>
        </g>
        <g id="Group_354" data-name="Group 354" transform="translate(15.562 38.559)">
          <path id="Path_940" data-name="Path 940" d="M43.8,69.328a9.553,9.553,0,0,0-4.725-4.138,11.035,11.035,0,0,1-13.9,0,9.6,9.6,0,0,0-5.914,7.741l-.935,7.809a1.986,1.986,0,0,0,1.53,2.184A59.018,59.018,0,0,0,32.136,84.19c1.657,0,3.28-.059,4.886-.2l.646-5.379a12.416,12.416,0,0,1,6.152-9.279Z" transform="translate(-18.314 -48.357)" fill="#004e85"/>
          <path id="Path_941" data-name="Path 941" d="M33.1,45.38a8.234,8.234,0,1,0,8.234,8.234A8.236,8.236,0,0,0,33.1,45.38Z" transform="translate(-19.299 -45.38)" fill="#004e85"/>
          <path id="Path_942" data-name="Path 942" d="M95.242,72.921a9.563,9.563,0,0,0-5.914-7.741,11.035,11.035,0,0,1-13.9,0,9.54,9.54,0,0,0-4.716,4.138A12.363,12.363,0,0,1,76.854,78.6l.646,5.379c1.6.136,3.229.2,4.877.2a59.018,59.018,0,0,0,12.279-1.266,1.986,1.986,0,0,0,1.53-2.184l-.943-7.809Z" transform="translate(-26.187 -48.355)" fill="#004e85"/>
          <path id="Path_943" data-name="Path 943" d="M82.984,45.38a8.234,8.234,0,1,0,8.234,8.234,8.236,8.236,0,0,0-8.234-8.234Z" transform="translate(-26.794 -45.38)" fill="#004e85"/>
          <path id="Path_944" data-name="Path 944" d="M69.932,80a9.579,9.579,0,0,0-5.914-7.741,11.023,11.023,0,0,1-13.893,0A9.563,9.563,0,0,0,44.211,80l-.943,7.809a1.986,1.986,0,0,0,1.53,2.184,60.172,60.172,0,0,0,24.557,0,1.972,1.972,0,0,0,1.53-2.184L69.949,80Z" transform="translate(-22.061 -49.419)" fill="#14a0de"/>
          <path id="Path_945" data-name="Path 945" d="M58.044,52.46a8.234,8.234,0,1,0,8.234,8.234,8.236,8.236,0,0,0-8.234-8.234Z" transform="translate(-23.046 -46.444)" fill="#14a0de"/>
        </g>
      </g>
    </g>
  </g>
</svg>
