<?xml version="1.0" encoding="UTF-8"?>
<svg xmlns="http://www.w3.org/2000/svg" onmouseup="{ if(window.parent.document.onmouseup) window.parent.document.onmouseup(arguments[0]);}" viewBox="0 0 180 180" height="180" width="180"><g transform="translate(-86 -353)" data-name="Group 1023" id="Group_1023"><circle data-cppathid="10000" fill="#fff" transform="translate(86 353)" r="90" cy="90" cx="90" data-name="Ellipse 45" id="Ellipse_45"/><g transform="translate(126.346 391.906)" data-name="Layer 1" id="Layer_1"><g transform="translate(-0.002)" data-name="Group 351" id="Group_351"><circle data-cppathid="10001" fill="#004e85" transform="translate(12.892 25.007)" r="8.292" cy="8.292" cx="8.292" data-name="Ellipse 50" id="Ellipse_50"/><path data-cppathid="10002" fill="#004e85" transform="translate(0.002 -16.188)" d="M44.314,72.553,37.664,70.4l-5.438-6.7a10.116,10.116,0,0,0-7.9-3.759H17.08C8.532,59.94,2.051,74.575.262,79.057A3.728,3.728,0,0,0,2.35,83.9a3.673,3.673,0,0,0,1.38.263A3.736,3.736,0,0,0,7.2,81.809a52.8,52.8,0,0,1,5.54-10.35l-.511,14.555L6.35,113.364a4.138,4.138,0,0,0,3.182,4.92,3.974,3.974,0,0,0,.876.095,4.138,4.138,0,0,0,4.044-3.27l5.8-27.015h1.628V114.24a4.146,4.146,0,0,0,8.292,0V86.385l-.5-14.007,2.905,3.584a3.673,3.673,0,0,0,1.745,1.2l7.7,2.5a3.726,3.726,0,0,0,2.3-7.088Z" data-name="Path 928" id="Path_928"/><circle data-cppathid="10003" fill="#004e85" transform="translate(68.458 26.439) rotate(-9.22)" r="8.292" cy="8.292" cx="8.292" data-name="Ellipse 51" id="Ellipse_51"/><path data-cppathid="10004" fill="#004e85" transform="translate(-19.336 -16.185)" d="M118.228,79.047c-1.781-4.482-8.27-19.117-16.818-19.117H94.162a10.139,10.139,0,0,0-7.9,3.759l-5.438,6.7-6.65,2.153a3.726,3.726,0,0,0,2.3,7.088l7.7-2.5a3.673,3.673,0,0,0,1.745-1.2l2.905-3.584-.5,14.007v27.854a4.142,4.142,0,1,0,8.285,0V88.069h1.628l5.8,27.015a4.138,4.138,0,0,0,4.044,3.27,3.974,3.974,0,0,0,.876-.095,4.142,4.142,0,0,0,3.182-4.92l-5.876-27.35-.511-14.555a52.419,52.419,0,0,1,5.54,10.35,3.736,3.736,0,0,0,3.467,2.35,3.822,3.822,0,0,0,1.38-.263,3.728,3.728,0,0,0,2.088-4.839Z" data-name="Path 929" id="Path_929"/><path data-cppathid="10005" fill="#14a0de" transform="translate(-16.732 -2.215)" d="M61.967,26.207A18.162,18.162,0,0,0,72.8,29.521a23.745,23.745,0,0,0,2.423-.146c2.321,1.117,4.8,2.255,7.066,3.146a1.443,1.443,0,0,0,1.635-2.255,10.266,10.266,0,0,1-1.759-3.11c3.394-1.949,5.569-4.949,5.569-8.307,0-5.715-6.3-10.38-14.212-10.65a11.162,11.162,0,0,1,1.015,4.679c0,6.321-5.2,11.518-12.577,13.321Z" data-name="Path 930" id="Path_930"/><path data-cppathid="10006" fill="#14a0de" transform="translate(-9.108)" d="M39.3,18.978a10.393,10.393,0,0,1-1.766,3.11,1.445,1.445,0,0,0,1.65,2.248c2.255-.883,4.737-2.022,7.051-3.153a20.4,20.4,0,0,0,2.431.153c8.256,0,14.942-4.781,14.942-10.672S56.92,0,48.672,0,33.73,4.774,33.73,10.672c0,3.358,2.182,6.35,5.577,8.307ZM56.117,8.314a2.343,2.343,0,1,1-2.343,2.343A2.346,2.346,0,0,1,56.117,8.314Zm-7.453,0a2.343,2.343,0,1,1-2.343,2.343A2.346,2.346,0,0,1,48.664,8.314Zm-7.453,0a2.343,2.343,0,1,1-2.343,2.343A2.346,2.346,0,0,1,41.212,8.314Z" data-name="Path 931" id="Path_931"/></g></g></g></svg>